<?xml version="1.0" encoding="utf-8"?>
<!-- Generator: Adobe Illustrator 23.0.6, SVG Export Plug-In . SVG Version: 6.00 Build 0)  -->
<svg version="1.1" id="Layer_1" xmlns="http://www.w3.org/2000/svg" xmlns:xlink="http://www.w3.org/1999/xlink" x="0px" y="0px"
	 viewBox="0 0 256 256" style="enable-background:new 0 0 256 256;" xml:space="preserve">
<style type="text/css">
	.st0{fill:url(#SVGID_1_);}
	.st1{fill:url(#SVGID_2_);}
	.st2{fill:url(#SVGID_3_);}
	.st3{fill:url(#SVGID_4_);}
	.st4{fill:url(#SVGID_5_);}
	.st5{fill:url(#SVGID_6_);}
	.st6{fill:url(#SVGID_7_);}
	.st7{fill:url(#SVGID_8_);}
	.st8{fill:url(#SVGID_9_);}
</style>
<g>
	
		<radialGradient id="SVGID_1_" cx="475.8522" cy="130.6456" r="402.0051" gradientTransform="matrix(1.6 0 0 1.6 -75.9017 -77.1024)" gradientUnits="userSpaceOnUse">
		<stop  offset="0" style="stop-color:#F48120"/>
		<stop  offset="1" style="stop-color:#F16522"/>
	</radialGradient>
	<path class="st0" d="M2.87,112.4c4.7,2.13,9.47,4.08,14.38,6.16c5.4-35.92,18.75-67.89,40.66-96.64c-0.59,0.08-0.81,0.04-0.94,0.13
		c-30.8,21.56-49.13,50.94-54.9,88.13C1.95,110.88,2.36,112.17,2.87,112.4z"/>
	
		<radialGradient id="SVGID_2_" cx="475.8522" cy="130.6456" r="402.0051" gradientTransform="matrix(1.6 0 0 1.6 -75.9017 -77.1024)" gradientUnits="userSpaceOnUse">
		<stop  offset="0" style="stop-color:#F48120"/>
		<stop  offset="1" style="stop-color:#F16522"/>
	</radialGradient>
	<path class="st1" d="M116.08,231.16c16.16-1.33,31.84-4.82,47.14-10.09c3.41-1.18,6.75-2.56,10.12-3.84
		c-3.59-13.46-8.4-25.96-14.72-37.82c-50.98,17.66-100.71,14.34-149.95-7.59c0.21,0.75,0.28,1.12,0.41,1.47
		c7.2,18.96,18.28,35.3,33.21,49c0.89,0.82,2.18,1.3,3.38,1.67C68.65,231.05,92.15,233.14,116.08,231.16z"/>
	
		<radialGradient id="SVGID_3_" cx="475.8522" cy="130.6456" r="402.0051" gradientTransform="matrix(1.6 0 0 1.6 -75.9017 -77.1024)" gradientUnits="userSpaceOnUse">
		<stop  offset="0" style="stop-color:#F48120"/>
		<stop  offset="1" style="stop-color:#F16522"/>
	</radialGradient>
	<path class="st2" d="M121.74,176.15c10.27-1.87,20.37-4.63,30.55-7c0.03-0.42,0.06-0.83,0.1-1.25c-3.75-5.35-7.32-10.84-11.3-16.01
		c-3.92-5.1-8.31-9.84-12.38-14.83c-1.44-1.77-2.88-2.02-5.13-1.64c-10.62,1.8-21.23,4.04-31.94,4.81
		c-30.13,2.15-59.42-1.93-87.44-13.73c-1.02-0.43-2.08-0.75-4.19-1.51c1.18,10.11,2.2,19.34,3.42,28.54
		c0.14,1.02,1.24,2.26,2.22,2.78c25.02,13.28,51.66,20.64,79.99,21.89C97.75,178.74,109.83,178.32,121.74,176.15z"/>
	
		<radialGradient id="SVGID_4_" cx="475.8522" cy="130.6456" r="402.0051" gradientTransform="matrix(1.6 0 0 1.6 -75.9017 -77.1024)" gradientUnits="userSpaceOnUse">
		<stop  offset="0" style="stop-color:#F48120"/>
		<stop  offset="1" style="stop-color:#F16522"/>
	</radialGradient>
	<path class="st3" d="M93.35,93.13c-4.61,11.18-7.98,22.74-9.93,35.11c13.47-0.19,26.33-2.17,39.05-5.18
		c0.84-0.2,1.67-1.53,2.05-2.5c3.4-8.75,6.26-17.74,10.11-26.29c12.88-28.59,31.36-52.92,56.16-72.28c1.35-1.06,2.66-2.16,4.2-3.41
		c-8.07-4.9-16.19-8.68-24.71-11.65c-1.95-0.68-3.4-0.59-5.18,0.55C132.23,28.54,108.23,57.02,93.35,93.13z"/>
	
		<radialGradient id="SVGID_5_" cx="475.8522" cy="130.6456" r="402.0051" gradientTransform="matrix(1.6 0 0 1.6 -75.9017 -77.1024)" gradientUnits="userSpaceOnUse">
		<stop  offset="0" style="stop-color:#F48120"/>
		<stop  offset="1" style="stop-color:#F16522"/>
	</radialGradient>
	<path class="st4" d="M29.48,120.22c-0.1,0.72,0.73,2.14,1.37,2.31c13.04,3.42,26.28,5.48,39.82,5.75
		c9.6-52.91,36.73-94.61,80.22-126.31c-20.44-3.58-39.92-2.21-59.11,3.48c-1.81,0.53-3.61,1.65-4.99,2.95
		C73.04,21.32,61.61,36.09,52.36,52.55C40.49,73.67,32.97,96.27,29.48,120.22z"/>
	
		<radialGradient id="SVGID_6_" cx="475.8522" cy="130.6456" r="402.0051" gradientTransform="matrix(1.6 0 0 1.6 -75.9017 -77.1024)" gradientUnits="userSpaceOnUse">
		<stop  offset="0" style="stop-color:#F48120"/>
		<stop  offset="1" style="stop-color:#F16522"/>
	</radialGradient>
	<path class="st5" d="M246.03,128.64c-11.15-29.59-28.93-54.67-52.48-75.68c-3.21-2.87-6.63-5.5-10-8.28
		c-10.29,10.19-18.87,21.09-26.15,32.88c40.98,34.86,63.44,79.05,69.15,132.53c0.56-0.53,0.94-0.82,1.23-1.18
		c12.25-15.18,20.79-32.2,25.24-51.24c0.37-1.6,0.78-3.44,0.36-4.94C251.09,144.65,248.98,136.48,246.03,128.64z"/>
	
		<radialGradient id="SVGID_7_" cx="475.8522" cy="130.6456" r="402.0051" gradientTransform="matrix(1.6 0 0 1.6 -75.9017 -77.1024)" gradientUnits="userSpaceOnUse">
		<stop  offset="0" style="stop-color:#F48120"/>
		<stop  offset="1" style="stop-color:#F16522"/>
	</radialGradient>
	<path class="st6" d="M176.19,229.33c-16.88,6.77-33.87,11.2-51.41,13.36c-17.46,2.16-34.96,2.11-52.47-0.04
		c0.84,0.65,1.69,1.11,2.57,1.52c14.25,6.57,29.17,10.38,44.84,11.5c19.5,1.4,38.24-1.67,56.41-8.72c1.57-0.61,2.18-1.42,1.95-3.08
		C177.44,239.17,176.86,234.47,176.19,229.33z"/>
	
		<radialGradient id="SVGID_8_" cx="475.8522" cy="130.6456" r="402.0051" gradientTransform="matrix(1.6 0 0 1.6 -75.9017 -77.1024)" gradientUnits="userSpaceOnUse">
		<stop  offset="0" style="stop-color:#F48120"/>
		<stop  offset="1" style="stop-color:#F16522"/>
	</radialGradient>
	<path class="st7" d="M205.65,26.19c-2.08,1.55-4.25,3.11-6.36,4.74c-2.16,1.67-4.28,3.4-6.64,5.27
		c28.16,22.42,49.07,49.95,63.06,83.15C259.22,93.3,230.64,40.33,205.65,26.19z"/>
	
		<radialGradient id="SVGID_9_" cx="475.8522" cy="130.6456" r="402.0051" gradientTransform="matrix(1.6 0 0 1.6 -75.9017 -77.1024)" gradientUnits="userSpaceOnUse">
		<stop  offset="0" style="stop-color:#F48120"/>
		<stop  offset="1" style="stop-color:#F16522"/>
	</radialGradient>
	<path class="st8" d="M165.68,102.24c-4.52-4.82-9.51-9.19-14.49-13.96c-6.53,12.11-11.43,24.28-15.16,36.92
		c-0.23,0.77,0.43,2.04,1.04,2.77c2.47,2.97,5.15,5.77,7.63,8.73c16.15,19.24,28.47,40.68,36.63,64.47
		c4.31,12.57,7.21,25.48,8.68,38.75c0.46-0.07,0.81-0.01,1.02-0.16c7.58-5.38,15.17-10.75,22.66-16.24c0.68-0.5,1.1-1.9,1.01-2.82
		c-0.87-8.97-1.3-18.04-2.93-26.87C205.32,158.85,190.04,128.21,165.68,102.24z"/>
</g>
</svg>
